<?xml version="1.0" ?><!DOCTYPE svg  PUBLIC '-//W3C//DTD SVG 1.1//EN'  'http://www.w3.org/Graphics/SVG/1.1/DTD/svg11.dtd'><svg enable-background="new 0 0 128 128" id="Слой_1" version="1.1" viewBox="0 0 128 128" xml:space="preserve" xmlns="http://www.w3.org/2000/svg" xmlns:xlink="http://www.w3.org/1999/xlink"><g><path d="M35.6,49c0.9,0,1.8,0.1,2.8,0.2C41.2,42.3,48,37.8,57,37.8c13.4,0,27.2,10.1,32.2,23   c1.2-0.3,2.4-0.5,3.8-0.5c8.3,0,16.8,6.7,19,15s-2.7,15-11,15c-5.2,0-50.2,0-54.4,0c-11.4,0-23.1-9.2-26.2-20.6   C17.5,58.2,24.2,49,35.6,49z" fill="#FFFFFF"/></g><g><g><path d="M20.5,69.6C17.5,58.2,24.2,49,35.6,49c0.9,0,1.8,0.1,2.8,0.2C41.2,42.3,48,37.8,57,37.8    c9.2,0,18.5,4.7,25.1,11.8c-4.9-2.7-10.3-4.3-15.6-4.3c-9,0-15.7,4.5-18.6,11.4c-0.9-0.1-1.8-0.2-2.8-0.2    C33.7,56.5,27,65.7,30,77.1c1,3.8,3,7.3,5.6,10.3C28.5,83.9,22.5,77.2,20.5,69.6z" fill="#EAEAEA"/></g></g><g><path d="M101,91H46.7C35,91,22.9,81.5,19.8,69.8c-1.6-5.9-0.7-11.4,2.5-15.5c3-3.9,7.8-6.1,13.4-6.1   c0.7,0,1.5,0,2.3,0.1C41.1,41.2,48.2,37,57,37c13.3,0,27.3,9.8,32.7,22.9c1.1-0.3,2.2-0.4,3.4-0.4c8.6,0,17.4,7,19.7,15.6   c1.2,4.3,0.5,8.4-1.8,11.4C108.7,89.4,105.2,91,101,91z M35.6,49.8c-5.1,0-9.5,2-12.2,5.5c-2.9,3.7-3.6,8.8-2.2,14.2   c3,11.1,14.4,20.1,25.4,20.1H101c3.7,0,6.8-1.4,8.7-3.9c2-2.7,2.6-6.3,1.6-10.1C109.2,67.5,100.9,61,93,61c-1.2,0-2.4,0.2-3.6,0.5   l-0.7,0.2l-0.2-0.6c-5-12.9-18.6-22.6-31.5-22.6c-8.3,0-15,4.1-17.9,11L38.8,50l-0.6-0.1C37.3,49.8,36.4,49.8,35.6,49.8z" fill="#333434"/></g></svg>